<mxfile host="Electron" modified="2024-02-06T16:31:59.631Z" agent="Mozilla/5.0 (Windows NT 10.0; Win64; x64) AppleWebKit/537.36 (KHTML, like Gecko) draw.io/22.1.2 Chrome/114.0.5735.289 Electron/25.9.4 Safari/537.36" etag="Npf_vgVzDSdCWuL9m_zu" version="22.1.2" type="device">
  <diagram id="23iRSUPoRavnBvh4doch" name="Page-1">
    <mxGraphModel dx="1795" dy="561" grid="1" gridSize="10" guides="1" tooltips="1" connect="1" arrows="1" fold="1" page="1" pageScale="1" pageWidth="827" pageHeight="1169" math="0" shadow="0">
      <root>
        <mxCell id="0" />
        <mxCell id="1" parent="0" />
        <mxCell id="25" value="Channel" style="swimlane;fontStyle=2;align=center;verticalAlign=top;childLayout=stackLayout;horizontal=1;startSize=26;horizontalStack=0;resizeParent=1;resizeLast=0;collapsible=1;marginBottom=0;rounded=0;shadow=0;strokeWidth=1;" parent="1" vertex="1">
          <mxGeometry x="-730" y="290" width="90" height="140" as="geometry">
            <mxRectangle x="230" y="140" width="160" height="26" as="alternateBounds" />
          </mxGeometry>
        </mxCell>
        <mxCell id="26" value="id" style="text;align=left;verticalAlign=top;spacingLeft=4;spacingRight=4;overflow=hidden;rotatable=0;points=[[0,0.5],[1,0.5]];portConstraint=eastwest;" parent="25" vertex="1">
          <mxGeometry y="26" width="90" height="26" as="geometry" />
        </mxCell>
        <mxCell id="27" value="" style="line;html=1;strokeWidth=1;align=left;verticalAlign=middle;spacingTop=-1;spacingLeft=3;spacingRight=3;rotatable=0;labelPosition=right;points=[];portConstraint=eastwest;" parent="25" vertex="1">
          <mxGeometry y="52" width="90" height="8" as="geometry" />
        </mxCell>
        <mxCell id="28" value="channel_name" style="text;align=left;verticalAlign=top;spacingLeft=4;spacingRight=4;overflow=hidden;rotatable=0;points=[[0,0.5],[1,0.5]];portConstraint=eastwest;fontStyle=0" parent="25" vertex="1">
          <mxGeometry y="60" width="90" height="26" as="geometry" />
        </mxCell>
        <mxCell id="jBHavIyfg3mKetd-m4gy-39" value="user_id" style="text;align=left;verticalAlign=top;spacingLeft=4;spacingRight=4;overflow=hidden;rotatable=0;points=[[0,0.5],[1,0.5]];portConstraint=eastwest;fontStyle=0" vertex="1" parent="25">
          <mxGeometry y="86" width="90" height="26" as="geometry" />
        </mxCell>
        <mxCell id="jBHavIyfg3mKetd-m4gy-40" value="message_id" style="text;align=left;verticalAlign=top;spacingLeft=4;spacingRight=4;overflow=hidden;rotatable=0;points=[[0,0.5],[1,0.5]];portConstraint=eastwest;fontStyle=0" vertex="1" parent="25">
          <mxGeometry y="112" width="90" height="26" as="geometry" />
        </mxCell>
        <mxCell id="29" value="User" style="swimlane;fontStyle=2;align=center;verticalAlign=top;childLayout=stackLayout;horizontal=1;startSize=26;horizontalStack=0;resizeParent=1;resizeLast=0;collapsible=1;marginBottom=0;rounded=0;shadow=0;strokeWidth=1;dashed=1;" parent="1" vertex="1">
          <mxGeometry x="-570" y="220" width="90" height="138" as="geometry">
            <mxRectangle x="230" y="140" width="160" height="26" as="alternateBounds" />
          </mxGeometry>
        </mxCell>
        <mxCell id="30" value="id" style="text;align=left;verticalAlign=top;spacingLeft=4;spacingRight=4;overflow=hidden;rotatable=0;points=[[0,0.5],[1,0.5]];portConstraint=eastwest;" parent="29" vertex="1">
          <mxGeometry y="26" width="90" height="26" as="geometry" />
        </mxCell>
        <mxCell id="31" value="" style="line;html=1;strokeWidth=1;align=left;verticalAlign=middle;spacingTop=-1;spacingLeft=3;spacingRight=3;rotatable=0;labelPosition=right;points=[];portConstraint=eastwest;" parent="29" vertex="1">
          <mxGeometry y="52" width="90" height="8" as="geometry" />
        </mxCell>
        <mxCell id="32" value="user_name" style="text;align=left;verticalAlign=top;spacingLeft=4;spacingRight=4;overflow=hidden;rotatable=0;points=[[0,0.5],[1,0.5]];portConstraint=eastwest;fontStyle=0" parent="29" vertex="1">
          <mxGeometry y="60" width="90" height="26" as="geometry" />
        </mxCell>
        <mxCell id="33" value="is_active" style="text;align=left;verticalAlign=top;spacingLeft=4;spacingRight=4;overflow=hidden;rotatable=0;points=[[0,0.5],[1,0.5]];portConstraint=eastwest;fontStyle=0" parent="29" vertex="1">
          <mxGeometry y="86" width="90" height="26" as="geometry" />
        </mxCell>
        <mxCell id="jBHavIyfg3mKetd-m4gy-150" value="message_id" style="text;align=left;verticalAlign=top;spacingLeft=4;spacingRight=4;overflow=hidden;rotatable=0;points=[[0,0.5],[1,0.5]];portConstraint=eastwest;fontStyle=0" vertex="1" parent="29">
          <mxGeometry y="112" width="90" height="26" as="geometry" />
        </mxCell>
        <mxCell id="34" value="Message" style="swimlane;fontStyle=2;align=center;verticalAlign=top;childLayout=stackLayout;horizontal=1;startSize=26;horizontalStack=0;resizeParent=1;resizeLast=0;collapsible=1;marginBottom=0;rounded=0;shadow=0;strokeWidth=1;" parent="1" vertex="1">
          <mxGeometry x="-390" y="450" width="90" height="140" as="geometry">
            <mxRectangle x="230" y="140" width="160" height="26" as="alternateBounds" />
          </mxGeometry>
        </mxCell>
        <mxCell id="35" value="id" style="text;align=left;verticalAlign=top;spacingLeft=4;spacingRight=4;overflow=hidden;rotatable=0;points=[[0,0.5],[1,0.5]];portConstraint=eastwest;" parent="34" vertex="1">
          <mxGeometry y="26" width="90" height="26" as="geometry" />
        </mxCell>
        <mxCell id="36" value="" style="line;html=1;strokeWidth=1;align=left;verticalAlign=middle;spacingTop=-1;spacingLeft=3;spacingRight=3;rotatable=0;labelPosition=right;points=[];portConstraint=eastwest;" parent="34" vertex="1">
          <mxGeometry y="52" width="90" height="8" as="geometry" />
        </mxCell>
        <mxCell id="37" value="content" style="text;align=left;verticalAlign=top;spacingLeft=4;spacingRight=4;overflow=hidden;rotatable=0;points=[[0,0.5],[1,0.5]];portConstraint=eastwest;fontStyle=0" parent="34" vertex="1">
          <mxGeometry y="60" width="90" height="26" as="geometry" />
        </mxCell>
        <mxCell id="38" value="date" style="text;align=left;verticalAlign=top;spacingLeft=4;spacingRight=4;overflow=hidden;rotatable=0;points=[[0,0.5],[1,0.5]];portConstraint=eastwest;fontStyle=0" parent="34" vertex="1">
          <mxGeometry y="86" width="90" height="26" as="geometry" />
        </mxCell>
        <mxCell id="39" value="hour" style="text;align=left;verticalAlign=top;spacingLeft=4;spacingRight=4;overflow=hidden;rotatable=0;points=[[0,0.5],[1,0.5]];portConstraint=eastwest;fontStyle=0" parent="34" vertex="1">
          <mxGeometry y="112" width="90" height="26" as="geometry" />
        </mxCell>
        <mxCell id="jBHavIyfg3mKetd-m4gy-65" value="Message" style="swimlane;fontStyle=2;align=center;verticalAlign=top;childLayout=stackLayout;horizontal=1;startSize=26;horizontalStack=0;resizeParent=1;resizeLast=0;collapsible=1;marginBottom=0;rounded=0;shadow=0;strokeWidth=1;" vertex="1" parent="1">
          <mxGeometry x="-570" y="445" width="90" height="140" as="geometry">
            <mxRectangle x="230" y="140" width="160" height="26" as="alternateBounds" />
          </mxGeometry>
        </mxCell>
        <mxCell id="jBHavIyfg3mKetd-m4gy-66" value="id" style="text;align=left;verticalAlign=top;spacingLeft=4;spacingRight=4;overflow=hidden;rotatable=0;points=[[0,0.5],[1,0.5]];portConstraint=eastwest;" vertex="1" parent="jBHavIyfg3mKetd-m4gy-65">
          <mxGeometry y="26" width="90" height="26" as="geometry" />
        </mxCell>
        <mxCell id="jBHavIyfg3mKetd-m4gy-67" value="" style="line;html=1;strokeWidth=1;align=left;verticalAlign=middle;spacingTop=-1;spacingLeft=3;spacingRight=3;rotatable=0;labelPosition=right;points=[];portConstraint=eastwest;" vertex="1" parent="jBHavIyfg3mKetd-m4gy-65">
          <mxGeometry y="52" width="90" height="8" as="geometry" />
        </mxCell>
        <mxCell id="jBHavIyfg3mKetd-m4gy-68" value="content" style="text;align=left;verticalAlign=top;spacingLeft=4;spacingRight=4;overflow=hidden;rotatable=0;points=[[0,0.5],[1,0.5]];portConstraint=eastwest;fontStyle=0" vertex="1" parent="jBHavIyfg3mKetd-m4gy-65">
          <mxGeometry y="60" width="90" height="26" as="geometry" />
        </mxCell>
        <mxCell id="jBHavIyfg3mKetd-m4gy-69" value="date" style="text;align=left;verticalAlign=top;spacingLeft=4;spacingRight=4;overflow=hidden;rotatable=0;points=[[0,0.5],[1,0.5]];portConstraint=eastwest;fontStyle=0" vertex="1" parent="jBHavIyfg3mKetd-m4gy-65">
          <mxGeometry y="86" width="90" height="26" as="geometry" />
        </mxCell>
        <mxCell id="jBHavIyfg3mKetd-m4gy-70" value="hour" style="text;align=left;verticalAlign=top;spacingLeft=4;spacingRight=4;overflow=hidden;rotatable=0;points=[[0,0.5],[1,0.5]];portConstraint=eastwest;fontStyle=0" vertex="1" parent="jBHavIyfg3mKetd-m4gy-65">
          <mxGeometry y="112" width="90" height="26" as="geometry" />
        </mxCell>
        <mxCell id="jBHavIyfg3mKetd-m4gy-71" value="Message" style="swimlane;fontStyle=2;align=center;verticalAlign=top;childLayout=stackLayout;horizontal=1;startSize=26;horizontalStack=0;resizeParent=1;resizeLast=0;collapsible=1;marginBottom=0;rounded=0;shadow=0;strokeWidth=1;" vertex="1" parent="1">
          <mxGeometry x="-310" y="270" width="90" height="143" as="geometry">
            <mxRectangle x="230" y="140" width="160" height="26" as="alternateBounds" />
          </mxGeometry>
        </mxCell>
        <mxCell id="jBHavIyfg3mKetd-m4gy-72" value="id" style="text;align=left;verticalAlign=top;spacingLeft=4;spacingRight=4;overflow=hidden;rotatable=0;points=[[0,0.5],[1,0.5]];portConstraint=eastwest;" vertex="1" parent="jBHavIyfg3mKetd-m4gy-71">
          <mxGeometry y="26" width="90" height="26" as="geometry" />
        </mxCell>
        <mxCell id="jBHavIyfg3mKetd-m4gy-73" value="" style="line;html=1;strokeWidth=1;align=left;verticalAlign=middle;spacingTop=-1;spacingLeft=3;spacingRight=3;rotatable=0;labelPosition=right;points=[];portConstraint=eastwest;" vertex="1" parent="jBHavIyfg3mKetd-m4gy-71">
          <mxGeometry y="52" width="90" height="8" as="geometry" />
        </mxCell>
        <mxCell id="jBHavIyfg3mKetd-m4gy-74" value="content" style="text;align=left;verticalAlign=top;spacingLeft=4;spacingRight=4;overflow=hidden;rotatable=0;points=[[0,0.5],[1,0.5]];portConstraint=eastwest;fontStyle=0" vertex="1" parent="jBHavIyfg3mKetd-m4gy-71">
          <mxGeometry y="60" width="90" height="26" as="geometry" />
        </mxCell>
        <mxCell id="jBHavIyfg3mKetd-m4gy-75" value="date" style="text;align=left;verticalAlign=top;spacingLeft=4;spacingRight=4;overflow=hidden;rotatable=0;points=[[0,0.5],[1,0.5]];portConstraint=eastwest;fontStyle=0" vertex="1" parent="jBHavIyfg3mKetd-m4gy-71">
          <mxGeometry y="86" width="90" height="26" as="geometry" />
        </mxCell>
        <mxCell id="jBHavIyfg3mKetd-m4gy-76" value="hour" style="text;align=left;verticalAlign=top;spacingLeft=4;spacingRight=4;overflow=hidden;rotatable=0;points=[[0,0.5],[1,0.5]];portConstraint=eastwest;fontStyle=0" vertex="1" parent="jBHavIyfg3mKetd-m4gy-71">
          <mxGeometry y="112" width="90" height="26" as="geometry" />
        </mxCell>
        <mxCell id="jBHavIyfg3mKetd-m4gy-110" value="User" style="swimlane;fontStyle=2;align=center;verticalAlign=top;childLayout=stackLayout;horizontal=1;startSize=26;horizontalStack=0;resizeParent=1;resizeLast=0;collapsible=1;marginBottom=0;rounded=0;shadow=0;strokeWidth=1;dashed=1;" vertex="1" parent="1">
          <mxGeometry x="-458" y="150" width="90" height="138" as="geometry">
            <mxRectangle x="230" y="140" width="160" height="26" as="alternateBounds" />
          </mxGeometry>
        </mxCell>
        <mxCell id="jBHavIyfg3mKetd-m4gy-111" value="id" style="text;align=left;verticalAlign=top;spacingLeft=4;spacingRight=4;overflow=hidden;rotatable=0;points=[[0,0.5],[1,0.5]];portConstraint=eastwest;" vertex="1" parent="jBHavIyfg3mKetd-m4gy-110">
          <mxGeometry y="26" width="90" height="26" as="geometry" />
        </mxCell>
        <mxCell id="jBHavIyfg3mKetd-m4gy-112" value="" style="line;html=1;strokeWidth=1;align=left;verticalAlign=middle;spacingTop=-1;spacingLeft=3;spacingRight=3;rotatable=0;labelPosition=right;points=[];portConstraint=eastwest;" vertex="1" parent="jBHavIyfg3mKetd-m4gy-110">
          <mxGeometry y="52" width="90" height="8" as="geometry" />
        </mxCell>
        <mxCell id="jBHavIyfg3mKetd-m4gy-113" value="user_name" style="text;align=left;verticalAlign=top;spacingLeft=4;spacingRight=4;overflow=hidden;rotatable=0;points=[[0,0.5],[1,0.5]];portConstraint=eastwest;fontStyle=0" vertex="1" parent="jBHavIyfg3mKetd-m4gy-110">
          <mxGeometry y="60" width="90" height="26" as="geometry" />
        </mxCell>
        <mxCell id="jBHavIyfg3mKetd-m4gy-114" value="is_active" style="text;align=left;verticalAlign=top;spacingLeft=4;spacingRight=4;overflow=hidden;rotatable=0;points=[[0,0.5],[1,0.5]];portConstraint=eastwest;fontStyle=0" vertex="1" parent="jBHavIyfg3mKetd-m4gy-110">
          <mxGeometry y="86" width="90" height="26" as="geometry" />
        </mxCell>
        <mxCell id="jBHavIyfg3mKetd-m4gy-151" value="message_id" style="text;align=left;verticalAlign=top;spacingLeft=4;spacingRight=4;overflow=hidden;rotatable=0;points=[[0,0.5],[1,0.5]];portConstraint=eastwest;fontStyle=0" vertex="1" parent="jBHavIyfg3mKetd-m4gy-110">
          <mxGeometry y="112" width="90" height="26" as="geometry" />
        </mxCell>
        <mxCell id="jBHavIyfg3mKetd-m4gy-144" style="edgeStyle=orthogonalEdgeStyle;rounded=0;orthogonalLoop=1;jettySize=auto;html=1;entryX=0;entryY=0.5;entryDx=0;entryDy=0;dashed=1;" edge="1" parent="1" source="jBHavIyfg3mKetd-m4gy-39" target="30">
          <mxGeometry relative="1" as="geometry" />
        </mxCell>
        <mxCell id="jBHavIyfg3mKetd-m4gy-145" style="edgeStyle=orthogonalEdgeStyle;rounded=0;orthogonalLoop=1;jettySize=auto;html=1;entryX=0;entryY=0.5;entryDx=0;entryDy=0;dashed=1;startArrow=classicThin;startFill=1;" edge="1" parent="1" target="jBHavIyfg3mKetd-m4gy-111">
          <mxGeometry relative="1" as="geometry">
            <mxPoint x="-670" y="389" as="sourcePoint" />
            <Array as="points">
              <mxPoint x="-620" y="389" />
              <mxPoint x="-620" y="189" />
            </Array>
          </mxGeometry>
        </mxCell>
        <mxCell id="jBHavIyfg3mKetd-m4gy-147" style="edgeStyle=orthogonalEdgeStyle;rounded=0;orthogonalLoop=1;jettySize=auto;html=1;exitX=1;exitY=0.5;exitDx=0;exitDy=0;" edge="1" parent="1" source="jBHavIyfg3mKetd-m4gy-40" target="jBHavIyfg3mKetd-m4gy-66">
          <mxGeometry relative="1" as="geometry" />
        </mxCell>
        <mxCell id="jBHavIyfg3mKetd-m4gy-148" style="edgeStyle=orthogonalEdgeStyle;rounded=0;orthogonalLoop=1;jettySize=auto;html=1;exitX=1;exitY=0.5;exitDx=0;exitDy=0;entryX=0.001;entryY=0.832;entryDx=0;entryDy=0;entryPerimeter=0;" edge="1" parent="1" source="jBHavIyfg3mKetd-m4gy-40" target="35">
          <mxGeometry relative="1" as="geometry">
            <mxPoint x="-410" y="490" as="targetPoint" />
            <Array as="points">
              <mxPoint x="-470" y="415" />
              <mxPoint x="-470" y="498" />
              <mxPoint x="-410" y="498" />
            </Array>
          </mxGeometry>
        </mxCell>
        <mxCell id="jBHavIyfg3mKetd-m4gy-149" style="edgeStyle=orthogonalEdgeStyle;rounded=0;orthogonalLoop=1;jettySize=auto;html=1;entryX=0;entryY=0.923;entryDx=0;entryDy=0;entryPerimeter=0;" edge="1" parent="1" source="jBHavIyfg3mKetd-m4gy-40" target="jBHavIyfg3mKetd-m4gy-72">
          <mxGeometry relative="1" as="geometry">
            <mxPoint x="-360" y="320" as="targetPoint" />
            <Array as="points">
              <mxPoint x="-360" y="415" />
              <mxPoint x="-360" y="319" />
              <mxPoint x="-310" y="319" />
            </Array>
          </mxGeometry>
        </mxCell>
        <mxCell id="jBHavIyfg3mKetd-m4gy-152" style="edgeStyle=orthogonalEdgeStyle;rounded=0;orthogonalLoop=1;jettySize=auto;html=1;exitX=1;exitY=0.5;exitDx=0;exitDy=0;entryX=-0.015;entryY=0.263;entryDx=0;entryDy=0;entryPerimeter=0;" edge="1" parent="1" source="jBHavIyfg3mKetd-m4gy-150" target="35">
          <mxGeometry relative="1" as="geometry">
            <mxPoint x="-420" y="470" as="targetPoint" />
          </mxGeometry>
        </mxCell>
        <mxCell id="jBHavIyfg3mKetd-m4gy-153" style="edgeStyle=orthogonalEdgeStyle;rounded=0;orthogonalLoop=1;jettySize=auto;html=1;exitX=1;exitY=0.5;exitDx=0;exitDy=0;entryX=0;entryY=0.5;entryDx=0;entryDy=0;" edge="1" parent="1" source="jBHavIyfg3mKetd-m4gy-150" target="jBHavIyfg3mKetd-m4gy-72">
          <mxGeometry relative="1" as="geometry" />
        </mxCell>
        <mxCell id="jBHavIyfg3mKetd-m4gy-154" style="edgeStyle=orthogonalEdgeStyle;rounded=0;orthogonalLoop=1;jettySize=auto;html=1;exitX=0;exitY=0.5;exitDx=0;exitDy=0;entryX=0;entryY=0.5;entryDx=0;entryDy=0;" edge="1" parent="1" source="jBHavIyfg3mKetd-m4gy-150" target="jBHavIyfg3mKetd-m4gy-66">
          <mxGeometry relative="1" as="geometry" />
        </mxCell>
      </root>
    </mxGraphModel>
  </diagram>
</mxfile>
